<svg
 xmlns="http://www.w3.org/2000/svg"
 xmlns:xlink="http://www.w3.org/1999/xlink"
 width="55px" height="48px">
<path fill-rule="evenodd"  fill="rgb(0, 216, 255)"
 d="M27.471,28.733 C30.182,28.728 32.375,26.567 32.370,23.907 C32.365,21.247 30.162,19.095 27.451,19.100 C24.743,19.105 22.551,21.260 22.551,23.917 C22.551,26.577 24.749,28.733 27.461,28.733 L27.471,28.733 ZM52.115,19.119 C50.394,17.737 48.008,16.490 45.172,15.531 C44.598,15.339 44.005,15.157 43.392,14.984 C43.496,14.581 43.587,14.187 43.665,13.804 C45.035,7.308 44.057,2.251 41.142,0.601 C39.695,-0.205 37.759,-0.205 35.490,0.601 C33.436,1.349 31.138,2.769 28.840,4.708 C28.383,5.091 27.927,5.501 27.471,5.936 C27.177,5.654 26.877,5.379 26.571,5.111 C21.525,0.697 16.576,-0.992 13.662,0.668 C12.224,1.532 11.246,3.163 10.826,5.466 C10.464,7.673 10.571,10.263 11.148,13.238 L11.638,15.060 C10.985,15.253 10.334,15.476 9.682,15.732 C3.618,17.651 -0.000,20.818 -0.000,23.984 C-0.000,25.615 1.076,27.342 2.934,28.973 C4.694,30.508 7.217,31.756 10.141,32.782 L11.608,33.166 C11.413,33.831 11.250,34.471 11.119,35.085 C9.946,41.197 10.923,45.783 13.711,47.367 C14.493,47.798 15.373,48.000 16.351,48.000 C17.329,48.000 18.405,47.808 19.549,47.386 C21.701,46.618 24.145,45.179 26.434,43.164 C26.825,42.844 27.216,42.505 27.607,42.147 L29.074,43.442 C32.595,46.417 36.018,47.981 38.658,47.981 C39.636,47.981 40.516,47.789 41.260,47.328 C42.727,46.465 43.744,44.805 44.194,42.416 C44.614,40.209 44.526,37.426 43.920,34.452 C43.828,33.991 43.721,33.511 43.597,33.013 L44.634,32.725 C51.049,30.643 55.000,27.284 55.000,23.993 C55.000,22.362 54.022,20.702 52.164,19.196 L52.115,19.119 ZM30.404,6.454 C32.458,4.688 34.492,3.412 36.302,2.769 C37.866,2.194 39.167,2.127 39.969,2.578 C40.820,3.057 41.436,4.276 41.729,5.993 C42.081,8.008 41.954,10.532 41.367,13.324 L41.172,14.408 C38.755,13.866 36.305,13.482 33.837,13.257 C32.435,11.272 30.899,9.381 29.241,7.596 L30.512,6.464 L30.404,6.454 ZM16.224,26.699 C16.706,27.620 17.222,28.548 17.769,29.482 C18.330,30.422 18.904,31.343 19.490,32.245 C17.792,32.063 16.104,31.793 14.434,31.439 C14.923,29.904 15.510,28.311 16.214,26.690 L16.224,26.699 ZM16.204,21.268 C15.520,19.685 14.933,18.121 14.464,16.605 C16.028,16.260 17.691,15.982 19.451,15.771 C18.864,16.653 18.301,17.555 17.760,18.476 C17.218,19.404 16.697,20.331 16.195,21.259 L16.204,21.268 ZM17.456,23.974 C18.170,22.516 18.953,21.057 19.803,19.628 C20.645,18.188 21.534,16.797 22.444,15.464 C24.106,15.348 25.769,15.272 27.461,15.272 C29.153,15.272 30.786,15.339 32.448,15.464 C33.328,16.778 34.209,18.150 35.089,19.608 C35.936,21.080 36.719,22.519 37.436,23.926 C36.751,25.365 35.871,26.834 35.089,28.292 C34.306,29.750 33.328,31.170 32.448,32.475 C30.786,32.590 29.123,32.648 27.363,32.648 C25.603,32.648 23.940,32.600 22.375,32.494 C21.397,31.151 20.517,29.750 19.637,28.321 C18.757,26.882 17.975,25.423 17.290,23.974 L17.456,23.974 ZM37.152,29.443 C37.720,28.497 38.254,27.547 38.756,26.593 C39.460,28.140 40.080,29.723 40.614,31.333 C38.919,31.709 37.206,31.997 35.480,32.197 L37.143,29.453 L37.152,29.443 ZM38.737,21.259 C38.235,20.338 37.706,19.404 37.152,18.457 C36.611,17.536 36.057,16.640 35.490,15.771 C37.231,15.982 38.913,16.269 40.477,16.634 C39.970,18.207 39.382,19.753 38.717,21.268 L38.737,21.259 ZM27.490,9.227 C28.631,10.452 29.708,11.733 30.717,13.065 C29.642,13.001 28.556,12.969 27.461,12.969 C26.365,12.969 25.257,13.001 24.136,13.065 C25.211,11.673 26.287,10.378 27.363,9.227 L27.490,9.227 ZM13.153,5.869 C13.447,4.238 14.033,3.115 14.835,2.654 C15.686,2.175 17.065,2.242 18.747,2.846 C20.674,3.566 22.855,4.938 25.006,6.838 C25.300,7.068 25.564,7.317 25.837,7.576 C24.150,9.391 22.589,11.314 21.163,13.333 C18.695,13.560 16.245,13.944 13.828,14.485 C13.685,13.973 13.561,13.429 13.456,12.854 C12.928,10.263 12.821,7.864 13.163,6.041 L13.153,5.869 ZM12.146,30.883 C11.690,30.755 11.240,30.617 10.796,30.470 C8.156,29.578 5.926,28.417 4.391,27.112 C3.071,26.008 2.337,24.876 2.337,23.917 C2.337,21.537 6.347,19.119 10.298,17.747 C10.885,17.555 11.530,17.363 12.185,17.171 C12.924,19.498 13.819,21.774 14.865,23.984 C13.830,26.227 12.947,28.534 12.224,30.892 L12.146,30.883 ZM24.859,41.379 C20.244,45.342 16.449,46.177 14.865,45.313 C12.811,44.114 12.615,39.499 13.398,35.459 L13.887,33.665 C16.337,34.183 18.820,34.536 21.319,34.720 C22.785,36.729 24.386,38.640 26.111,40.439 L25.114,41.379 L24.859,41.379 ZM27.559,38.789 C26.385,37.599 25.309,36.294 24.234,34.893 C25.277,34.932 26.352,34.954 27.461,34.960 C28.569,34.960 29.677,34.935 30.786,34.884 C29.779,36.233 28.702,37.530 27.559,38.769 L27.559,38.789 ZM39.979,45.313 C37.827,46.522 33.720,44.354 30.492,41.667 C30.036,41.283 29.580,40.868 29.123,40.420 C30.786,38.612 32.322,36.695 33.720,34.682 C36.220,34.474 38.704,34.099 41.152,33.560 L41.445,34.807 C42.619,40.660 41.445,44.306 39.881,45.265 L39.979,45.313 ZM43.802,30.499 L42.873,30.787 C42.108,28.446 41.180,26.161 40.096,23.945 C41.160,21.769 42.075,19.525 42.834,17.229 C43.421,17.383 43.975,17.549 44.497,17.728 C47.137,18.592 49.289,19.647 50.756,20.894 C52.027,21.950 52.809,23.005 52.809,23.869 C52.809,25.596 50.071,28.474 44.008,30.393 L43.802,30.499 Z"/>
</svg>
